{"title":"The.Hunger.Games.Catching.Fire.2013.IMAX.EDITION.BRRip.XviD.AC3-","uid":9501838,"size":1308700158,"categoryP":"video","categoryS":"movies","magnet":"?xt=urn:btih:46e8ff2462df4262855a45c025c01a6e1f4f4744&amp;dn=The.Hunger.Games.Catching.Fire.2013.IMAX.EDITION.BRRip.XviD.AC3-&amp;tr=udp%3A%2F%2Ftracker.openbittorrent.com%3A80&amp;tr=udp%3A%2F%2Fopen.demonii.com%3A1337&amp;tr=udp%3A%2F%2Ftracker.coppersurfer.tk%3A6969&amp;tr=udp%3A%2F%2Fexodus.desync.com%3A6969","seeders":3,"leechers":0,"uploader":"xxxlavalxxx","files":-1,"time":1390241379,"description":" &lt;a href=&quot;\nhttp://www.imdb.com/title/tt1951264/&quot; rel=&quot;nofollow&quot; target=&quot;_NEW&quot;&gt;\nhttp://www.imdb.com/title/tt1951264/&lt;/a&gt;\n\n\nKatniss Everdeen and Peeta Mellark become targets of the Capitol after their victory in the 74th Hunger Games sparks a rebellion in the Districts of Panem.\n\nDirector: Francis Lawrence\nWriters: Simon Beaufoy (screenplay), Michael Arndt (screenplay)\nStars: Jennifer Lawrence, Josh Hutcherson, Liam Hemsworth\nGenres: Action | Adventure | Sci-Fi | Thriller\nCountry: USA\nLanguage: English\n\nThanks: PHD\n\n\nFormat                                   : AVI\nFormat/Info                              : Audio Video Interleave\nFile size                                : 1.20 GiB\nDuration                                 : 2h 26mn\nOverall bit rate                         : 1 175 Kbps\n\nVideo\nID                                       : 0\nFormat                                   : MPEG-4 Visual\nFormat profile                           : Advanced Simple@L5\nFormat settings, BVOP                    : 2\nFormat settings, QPel                    : No\nFormat settings, GMC                     : No warppoints\nFormat settings, Matrix                  : Default (H.263)\nCodec ID                                 : XVID\nCodec ID/Hint                            : XviD\nDuration                                 : 2h 26mn\nBit rate                                 : 528 Kbps\nWidth                                    : 720 pixels\nHeight                                   : 400 pixels\nDisplay aspect ratio                     : 16:9\nFrame rate                               : 23.976 fps\nColor space                              : YUV\nChroma subsampling                       : 4:2:0\nBit depth                                : 8 bits\nScan type                                : Progressive\nCompression mode                         : Lossy\nBits/(Pixel*Frame)                       : 0.076\nStream size                              : 552 MiB (45%)\nWriting library                          : XviD 1.2.1 (UTC 2008-12-04)\n\nAudio\nID                                       : 1\nFormat                                   : AC-3\nFormat/Info                              : Audio Coding 3\nMode extension                           : CM (complete main)\nFormat settings, Endianness              : Big\nCodec ID                                 : 2000\nDuration                                 : 2h 26mn\nBit rate mode                            : Constant\nBit rate                                 : 640 Kbps\nChannel(s)                               : 6 channels\nChannel positions                        : Front: L C R, Side: L R, LFE\nSampling rate                            : 48.0 KHz\nBit depth                                : 16 bits\nCompression mode                         : Lossy\nStream size                              : 669 MiB (54%)\nAlignment                                : Aligned on interleaves\nInterleave, duration                     : 64 ms (1.53 video frames)\nInterleave, preload duration             : 192 ms\nTitle                                    : T2_Audio - English\n\n\n\nscreens\n &lt;a href=&quot;\nhttp://i.imgur.com/fiHzvfj.jpg&quot; rel=&quot;nofollow&quot; target=&quot;_NEW&quot;&gt;\nhttp://i.imgur.com/fiHzvfj.jpg&lt;/a&gt; &lt;a href=&quot;\nhttp://i.imgur.com/7NKAJrE.jpg&quot; rel=&quot;nofollow&quot; target=&quot;_NEW&quot;&gt;\nhttp://i.imgur.com/7NKAJrE.jpg&lt;/a&gt; &lt;a href=&quot;\nhttp://i.imgur.com/6q8BAFD.jpg&quot; rel=&quot;nofollow&quot; target=&quot;_NEW&quot;&gt;\nhttp://i.imgur.com/6q8BAFD.jpg&lt;/a&gt; &lt;a href=&quot;\nhttp://i.imgur.com/I6k5ov3.jpg&quot; rel=&quot;nofollow&quot; target=&quot;_NEW&quot;&gt;\nhttp://i.imgur.com/I6k5ov3.jpg&lt;/a&gt; &lt;a href=&quot;\nhttp://i.imgur.com/srtOvzy.jpg&quot; rel=&quot;nofollow&quot; target=&quot;_NEW&quot;&gt;\nhttp://i.imgur.com/srtOvzy.jpg&lt;/a&gt;","torrent":{"xt":"urn:btih:46e8ff2462df4262855a45c025c01a6e1f4f4744","amp;dn":"The.Hunger.Games.Catching.Fire.2013.IMAX.EDITION.BRRip.XviD.AC3-","amp;tr":["udp%3A%2F%2Ftracker.openbittorrent.com%3A80","udp%3A%2F%2Fopen.demonii.com%3A1337","udp%3A%2F%2Ftracker.coppersurfer.tk%3A6969","udp%3A%2F%2Fexodus.desync.com%3A6969"],"infoHash":"46e8ff2462df4262855a45c025c01a6e1f4f4744","infoHashBuffer":{"type":"Buffer","data":[70,232,255,36,98,223,66,98,133,90,69,192,37,192,26,110,31,79,71,68]},"announce":[],"urlList":[]}}